<svg width="52" height="48" viewBox="0 0 52 48" fill="none" xmlns="http://www.w3.org/2000/svg">
<path d="M51.8678 18.1723C51.5011 17.0736 50.4424 16.3285 49.2481 16.3285H33.4354L28.6194 1.84503C28.2539 0.74633 27.1957 0 26 0C24.8044 0 23.7461 0.74633 23.3806 1.84503L18.5647 16.3284H2.752C1.55752 16.3284 0.498832 17.0734 0.132191 18.1722C-0.233333 19.2709 0.176472 20.4725 1.14771 21.1447L13.9696 30.0367L9.03385 44.51C8.65867 45.6081 9.06208 46.8124 10.0293 47.492C10.9971 48.1715 12.3083 48.1686 13.2732 47.4863L26 38.4787L38.727 47.4864C39.6918 48.1688 41.0031 48.1717 41.971 47.4921C42.9381 46.8126 43.3415 45.6082 42.9674 44.5101L38.0305 30.0367L50.8523 21.1448C51.8235 20.4726 52.2334 19.2709 51.8678 18.1723Z" fill="#595959"/>
</svg>
